<svg width="38" height="38" viewBox="0 0 38 38" fill="none" xmlns="http://www.w3.org/2000/svg">
<path fill-rule="evenodd" clip-rule="evenodd" d="M26.3287 24.7C26.3287 24.7 26.0152 25.4695 25.7189 26.1956C25.311 27.1973 25.7913 28.3409 26.793 28.75L26.7942 28.7506C27.0168 28.8414 27.1896 29.0249 27.2674 29.2523C27.3458 29.4803 27.3214 29.7308 27.2009 29.9392C26.7722 30.6814 26.3358 31.4373 26.3358 31.4373C26.1719 31.7211 26.2693 32.0845 26.5531 32.2483C26.8369 32.4122 27.2003 32.3148 27.3642 32.031C27.3642 32.031 27.8006 31.2752 28.2292 30.533C28.5214 30.0271 28.5802 29.4203 28.3913 28.8681C28.2019 28.3159 27.7839 27.8718 27.243 27.6515L27.2424 27.6509C26.8476 27.4894 26.6576 27.0388 26.8191 26.6433L27.4283 25.1483C27.5518 24.8443 27.4057 24.4975 27.1023 24.374C26.7989 24.2505 26.4522 24.3966 26.3287 24.7ZM10.9761 24.7C10.9761 24.7 10.6626 25.4695 10.3669 26.1956C9.95837 27.1973 10.4393 28.3409 11.441 28.75L11.4416 28.7506C11.6648 28.8414 11.8376 29.0249 11.9154 29.2523C11.9932 29.4803 11.9688 29.7308 11.8483 29.9392C11.4202 30.6814 10.9832 31.4373 10.9832 31.4373C10.8193 31.7211 10.9167 32.0845 11.2005 32.2483C11.4843 32.4122 11.8477 32.3148 12.0116 32.031C12.0116 32.031 12.4486 31.2752 12.8767 30.533C13.1688 30.0271 13.2276 29.4203 13.0387 28.8681C12.8499 28.3159 12.4313 27.8718 11.891 27.6515L11.8898 27.6509C11.495 27.4894 11.3056 27.0388 11.4665 26.6433L12.0757 25.1483C12.1992 24.8443 12.0531 24.4975 11.7497 24.374C11.4463 24.2505 11.0996 24.3966 10.9761 24.7ZM18.6521 24.7C18.6521 24.7 18.3386 25.4695 18.0429 26.1956C17.6344 27.1973 18.1153 28.3409 19.117 28.75L19.1182 28.7506C19.3408 28.8414 19.5136 29.0249 19.5914 29.2523C19.6692 29.4803 19.6448 29.7308 19.5249 29.9392C19.0962 30.6814 18.6598 31.4373 18.6598 31.4373C18.4959 31.7211 18.5933 32.0845 18.8771 32.2483C19.1609 32.4122 19.5243 32.3148 19.6882 32.031C19.6882 32.031 20.1246 31.2752 20.5533 30.533C20.8448 30.0271 20.9042 29.4203 20.7148 28.8681C20.5259 28.3159 20.1073 27.8718 19.567 27.6515L19.5664 27.6509C19.171 27.4894 18.9816 27.0388 19.1425 26.6433L19.7517 25.1483C19.8758 24.8443 19.7297 24.4975 19.4263 24.374C19.1223 24.2505 18.7756 24.3966 18.6521 24.7ZM1.78125 8.64084V17.2502C1.78125 17.35 1.80619 17.4444 1.84953 17.5269L3.11184 21.527C3.42416 22.5156 4.34091 23.1877 5.377 23.1877H32.623C33.6591 23.1877 34.5758 22.5156 34.8882 21.527L36.1505 17.5269C36.1938 17.4444 36.2188 17.35 36.2188 17.2502V8.64084C36.2188 7.65699 35.4213 6.85959 34.4375 6.85959H3.5625C2.57866 6.85959 1.78125 7.65699 1.78125 8.64084ZM10.9565 22.0002L11.4113 20.8127H26.5887L27.0435 22.0002H10.9565ZM21.4332 16.625H35.0312V12.7971H28.5V14.2815C28.5 14.6092 28.234 14.8752 27.9062 14.8752H23.2815C22.8249 15.6037 22.1878 16.2082 21.4332 16.625ZM9.5 12.7971H2.96875V16.625H16.5668C15.8122 16.2082 15.1751 15.6037 14.7185 14.8752H10.0938C9.766 14.8752 9.5 14.6092 9.5 14.2815V12.7971ZM19 8.34396C21.1298 8.34396 22.8594 10.073 22.8594 12.2033C22.8594 14.3331 21.1298 16.0627 19 16.0627C16.8702 16.0627 15.1406 14.3331 15.1406 12.2033C15.1406 10.073 16.8702 8.34396 19 8.34396ZM19.9132 13.6984C19.9815 13.6224 19.9666 13.5031 19.8823 13.4467C19.6282 13.2757 19.3242 13.1646 18.9976 13.1646C18.6717 13.1646 18.3688 13.2757 18.1147 13.4455C18.0298 13.5019 18.015 13.6212 18.0833 13.6972L18.8747 14.5795C18.9406 14.6526 19.0546 14.6526 19.1205 14.5795L19.9132 13.6984ZM18.9982 12.4307C19.5314 12.4307 20.0236 12.6077 20.4202 12.9046C20.4903 12.9562 20.5865 12.9509 20.6447 12.8861L20.9279 12.5709C20.992 12.4996 20.9849 12.3868 20.9101 12.3286C20.3805 11.9177 19.7184 11.6559 18.9982 11.6559C18.2786 11.6559 17.6172 11.9172 17.0887 12.3268C17.0133 12.385 17.0068 12.4978 17.0703 12.5685L17.3529 12.8844C17.4111 12.9491 17.5079 12.955 17.5774 12.9028C17.974 12.6071 18.465 12.4307 18.9982 12.4307ZM18.9982 10.9007C19.9245 10.9007 20.7741 11.2248 21.4439 11.7622C21.5128 11.8174 21.6107 11.8115 21.6701 11.7456L21.9254 11.4623C21.9883 11.3917 21.9824 11.2807 21.9088 11.2207C21.1137 10.5705 20.1026 10.1252 18.9982 10.1252C17.895 10.1252 16.8851 10.5687 16.0912 11.2171C16.0176 11.2771 16.0111 11.3881 16.0746 11.4588L16.3293 11.7426C16.3881 11.8085 16.4867 11.8144 16.5555 11.7592C17.2247 11.2237 18.0726 10.9007 18.9982 10.9007ZM35.0312 11.6096V8.64084C35.0312 8.31249 34.7653 8.04709 34.4375 8.04709H21.8625C22.4307 8.43896 22.9146 8.94484 23.2815 9.53146H27.9062C28.234 9.53146 28.5 9.79687 28.5 10.1252V11.6096H35.0312ZM16.1375 8.04709H3.5625C3.23475 8.04709 2.96875 8.31249 2.96875 8.64084V11.6096H9.5V10.1252C9.5 9.79687 9.766 9.53146 10.0938 9.53146H14.7185C15.0854 8.94484 15.5693 8.43896 16.1375 8.04709Z" fill="black"/>
</svg>
