<svg width="271" height="271" viewBox="0 0 271 271" fill="none" xmlns="http://www.w3.org/2000/svg">
<g opacity="0.1" filter="url(#filter0_f_233_329)">
<circle cx="135.5" cy="135.5" r="124.757" fill="url(#paint0_radial_233_329)"/>
</g>
<g opacity="0.15" filter="url(#filter1_f_233_329)">
<circle cx="135.5" cy="135.5" r="96.6429" fill="url(#paint1_radial_233_329)"/>
</g>
<circle cx="135.5" cy="135.5" r="61.5" fill="url(#paint2_radial_233_329)"/>
<path d="M130.361 146.1C130.361 145.875 130.336 145.775 130.236 145.775L129.661 146.05C129.661 145.925 129.586 145.85 129.461 145.8L129.261 145.775C129.086 145.775 129.011 145.8 128.761 145.95C128.686 145.8 128.586 145.625 128.511 145.475C127.861 144.225 127.186 142.35 126.886 141.525C126.736 141.1 126.586 140.225 126.411 138.9C126.611 139.025 126.761 139.075 126.836 139.075C126.936 139.075 127.061 138.9 127.161 138.55C127.211 138.625 127.311 138.65 127.436 138.65C127.511 138.65 127.611 138.625 127.661 138.55L128.061 137.95L128.511 138.1H128.536C128.586 138.1 128.661 138.025 128.786 137.95C128.911 137.875 129.011 137.825 129.086 137.825L129.161 137.85C129.561 138.05 129.836 138.4 129.961 138.95C130.261 140.225 130.536 140.85 130.861 140.85C131.136 140.85 131.511 140.525 131.911 139.9C132.311 139.275 132.711 138.425 133.161 137.4C133.186 137.6 133.211 137.7 133.261 137.7C133.411 137.7 133.786 136.825 134.711 135.35C136.086 133.125 139.486 128.85 140.361 128.25C141.011 127.8 141.511 127.375 141.861 127C141.811 127.25 141.761 127.425 141.761 127.5C141.761 127.575 141.811 127.6 141.861 127.6L142.561 127.25V127.35C142.561 127.475 142.586 127.55 142.661 127.55C142.761 127.55 143.161 127.15 143.211 127L143.161 127.35L144.011 126.85L143.811 127.3C144.061 127.125 144.261 127.025 144.386 127.025C144.511 127.025 144.586 127.225 144.586 127.35C144.586 127.55 144.411 127.825 144.136 128.175C143.836 128.575 143.086 129.35 140.836 131.925C139.861 133.025 135.536 138.9 134.711 140.3L133.161 142.925C132.486 144.05 132.061 144.775 131.836 145.05C131.611 145.325 131.336 145.6 131.011 145.85L130.786 145.725L130.586 145.85L130.361 146.1Z" fill="white"/>
<defs>
<filter id="filter0_f_233_329" x="0.74292" y="0.742859" width="269.514" height="269.514" filterUnits="userSpaceOnUse" color-interpolation-filters="sRGB">
<feFlood flood-opacity="0" result="BackgroundImageFix"/>
<feBlend mode="normal" in="SourceGraphic" in2="BackgroundImageFix" result="shape"/>
<feGaussianBlur stdDeviation="5" result="effect1_foregroundBlur_233_329"/>
</filter>
<filter id="filter1_f_233_329" x="28.8572" y="28.8571" width="213.286" height="213.286" filterUnits="userSpaceOnUse" color-interpolation-filters="sRGB">
<feFlood flood-opacity="0" result="BackgroundImageFix"/>
<feBlend mode="normal" in="SourceGraphic" in2="BackgroundImageFix" result="shape"/>
<feGaussianBlur stdDeviation="5" result="effect1_foregroundBlur_233_329"/>
</filter>
<radialGradient id="paint0_radial_233_329" cx="0" cy="0" r="1" gradientUnits="userSpaceOnUse" gradientTransform="translate(10.7429 -29.8757) rotate(54.4352) scale(356.666)">
<stop offset="0.046875" stop-color="#BBF246"/>
<stop offset="0.983052" stop-color="#BBF246"/>
</radialGradient>
<radialGradient id="paint1_radial_233_329" cx="0" cy="0" r="1" gradientUnits="userSpaceOnUse" gradientTransform="translate(38.8572 7.39204) rotate(54.4352) scale(276.29)">
<stop offset="0.046875" stop-color="#BBF246"/>
<stop offset="0.983052" stop-color="#8BC83F"/>
</radialGradient>
<radialGradient id="paint2_radial_233_329" cx="0" cy="0" r="1" gradientUnits="userSpaceOnUse" gradientTransform="translate(74 53.9767) rotate(54.4352) scale(175.821)">
<stop offset="0.046875" stop-color="#234F68"/>
<stop offset="0.983052" stop-color="#8BC83F"/>
</radialGradient>
</defs>
</svg>
