<svg width="20" height="20" viewBox="0 0 20 20" fill="none" xmlns="http://www.w3.org/2000/svg">
<path d="M17.7363 6.89649L12.7773 6.17579L10.5605 1.68165C10.5 1.5586 10.4004 1.45899 10.2773 1.39844C9.96875 1.2461 9.59375 1.37305 9.43945 1.68165L7.22266 6.17579L2.26367 6.89649C2.12695 6.91602 2.00195 6.98048 1.90625 7.07813C1.79055 7.19705 1.72679 7.35704 1.72899 7.52294C1.73119 7.68884 1.79916 7.84709 1.91797 7.9629L5.50586 11.4609L4.6582 16.4004C4.63833 16.5153 4.65104 16.6335 4.69491 16.7415C4.73877 16.8496 4.81203 16.9432 4.90638 17.0117C5.00073 17.0802 5.1124 17.1209 5.22871 17.1292C5.34502 17.1375 5.46134 17.113 5.56445 17.0586L10 14.7266L14.4355 17.0586C14.5566 17.1231 14.6973 17.1445 14.832 17.1211C15.1719 17.0625 15.4004 16.7402 15.3418 16.4004L14.4941 11.4609L18.082 7.9629C18.1797 7.8672 18.2441 7.74219 18.2637 7.60548C18.3164 7.26368 18.0781 6.94727 17.7363 6.89649Z" fill="#FFD33C"/>
</svg>
