<svg width="35" height="35" viewBox="0 0 35 35" fill="none" xmlns="http://www.w3.org/2000/svg">
<path d="M17.5 3.28125C9.64688 3.28125 3.28125 9.64688 3.28125 17.5C3.28125 25.3531 9.64688 31.7188 17.5 31.7188C25.3531 31.7188 31.7188 25.3531 31.7188 17.5C31.7188 9.64688 25.3531 3.28125 17.5 3.28125ZM25.4384 13.4608L15.0631 23.835C14.8028 24.0942 14.3817 24.0942 14.1214 23.835L13.9125 23.6261L13.9114 23.6272L8.20312 17.8784C7.94281 17.6181 7.94281 17.1959 8.20312 16.9356L9.61844 15.5214C9.87875 15.2611 10.3009 15.2611 10.5613 15.5214L14.5961 19.5858L23.0792 11.1027C23.3395 10.8423 23.7617 10.8423 24.022 11.1027L25.4373 12.518C25.6987 12.7772 25.6987 13.1994 25.4384 13.4608Z" fill="#BBF246"/>
</svg>
