<svg width="21" height="21" viewBox="0 0 21 21" fill="none" xmlns="http://www.w3.org/2000/svg">
<g clip-path="url(#clip0_6_205)">
<path d="M9.84478 12.1674C9.84478 10.0417 8.11546 8.31241 5.98977 8.31241C3.86414 8.31241 2.13486 10.0417 2.13486 12.1674C2.13486 12.7903 2.28349 13.3791 2.547 13.9003L5.98977 21L9.43316 13.8992C9.69628 13.3782 9.84478 12.7898 9.84478 12.1674ZM5.98977 14.3007C4.81349 14.3007 3.85644 13.3437 3.85644 12.1674C3.85644 10.9911 4.81349 10.034 5.98977 10.034C7.16611 10.034 8.12311 10.9911 8.12311 12.1674C8.12311 13.3437 7.16611 14.3007 5.98977 14.3007Z" fill="#BBF246"/>
<path d="M16.913 0C15.8367 0 14.961 0.875672 14.961 1.95202C14.961 2.26745 15.0363 2.56557 15.1697 2.82957L16.913 6.42468L18.6566 2.829C18.7899 2.56518 18.8651 2.26723 18.8651 1.95206C18.8651 0.875672 17.9893 0 16.913 0ZM16.913 3.03229C16.3174 3.03229 15.8328 2.5477 15.8328 1.95202C15.8328 1.35638 16.3174 0.871739 16.913 0.871739C17.5086 0.871739 17.9933 1.35638 17.9933 1.95202C17.9933 2.5477 17.5086 3.03229 16.913 3.03229Z" fill="#BBF246"/>
<path d="M15.2129 12.6639C15.1337 12.2914 15.0308 11.9264 14.9012 11.5681C14.7276 11.0879 14.5193 10.6187 14.3597 10.1331C14.0616 9.22541 14.576 8.4679 14.6726 8.3302C14.842 8.08911 15.0401 7.86785 15.2491 7.66062C15.6514 7.26172 16.0951 6.90513 16.5594 6.57672C16.5019 6.48761 16.4461 6.39754 16.3931 6.30582C15.7254 6.56758 12.2916 7.76769 12.3753 10.419C12.3921 10.9504 12.5975 11.4563 12.724 11.9715C12.785 12.2197 12.8379 12.4702 12.8702 12.7239C12.8842 12.8381 12.8927 12.953 12.9021 13.0678C12.9023 13.0669 12.9022 13.0663 12.9017 13.0659C12.902 13.0692 12.9105 13.4297 12.8946 13.5859C12.8444 14.0749 12.7722 14.5689 12.5661 15.0174C12.3744 15.4345 12.0851 15.7971 11.7274 16.0838C10.9095 16.7391 9.82577 17.001 8.80322 17.1063C8.75454 17.1114 8.70585 17.1158 8.65717 17.12L6.83141 20.8849C7.73225 20.829 8.63078 20.7057 9.50741 20.4899C10.539 20.236 11.5444 19.8524 12.4453 19.2839C13.3453 18.7159 14.1193 17.9476 14.6346 17.0121C15.1737 16.0336 15.3896 14.9129 15.3437 13.8023C15.3281 13.4229 15.2921 13.0362 15.2129 12.6639Z" fill="#BBF246"/>
</g>
<defs>
<clipPath id="clip0_6_205">
<rect width="21" height="21" fill="white"/>
</clipPath>
</defs>
</svg>
