<svg width="18" height="18" viewBox="0 0 18 18" fill="none" xmlns="http://www.w3.org/2000/svg">
<path d="M15.465 6.3375C14.6775 2.8725 11.655 1.3125 9 1.3125C9 1.3125 9 1.3125 8.9925 1.3125C6.345 1.3125 3.315 2.865 2.5275 6.33C1.65 10.2 4.02 13.4775 6.165 15.54C6.96 16.305 7.98 16.6875 9 16.6875C10.02 16.6875 11.04 16.305 11.8275 15.54C13.9725 13.4775 16.3425 10.2075 15.465 6.3375ZM9 10.095C7.695 10.095 6.6375 9.0375 6.6375 7.7325C6.6375 6.4275 7.695 5.37 9 5.37C10.305 5.37 11.3625 6.4275 11.3625 7.7325C11.3625 9.0375 10.305 10.095 9 10.095Z" fill="#BBF246"/>
</svg>
