<svg width="38" height="38" viewBox="0 0 38 38" fill="none" xmlns="http://www.w3.org/2000/svg">
<path d="M33.2501 0H20.5834V31.6667H17.4167V0H4.75006C3.8745 0 3.16675 0.709309 3.16675 1.58331V33.25V36.4167C3.16675 37.2907 3.8745 38 4.75006 38C5.62562 38 6.33337 37.2907 6.33337 36.4167V34.8334H17.4167V36.4167C17.4167 37.2907 18.1244 38 19 38C19.8755 38 20.5833 37.2907 20.5833 36.4167V34.8334H31.6666V36.4167C31.6666 37.2907 32.3743 38 33.2499 38C34.1255 38 34.8332 37.2907 34.8332 36.4167V33.25V1.58331C34.8334 0.709309 34.1256 0 33.2501 0ZM12.6667 14.25H11.0834C10.2078 14.25 9.50006 13.5407 9.50006 12.6667C9.50006 11.7927 10.2078 11.0834 11.0834 11.0834H12.6667C13.5422 11.0834 14.25 11.7927 14.25 12.6667C14.25 13.5407 13.5423 14.25 12.6667 14.25ZM12.6667 9.5H11.0834C10.2078 9.5 9.50006 8.79069 9.50006 7.91669C9.50006 7.04269 10.2078 6.33338 11.0834 6.33338H12.6667C13.5422 6.33338 14.25 7.04269 14.25 7.91669C14.25 8.79069 13.5423 9.5 12.6667 9.5ZM26.9167 14.25H25.3334C24.4578 14.25 23.7501 13.5407 23.7501 12.6667C23.7501 11.7927 24.4578 11.0834 25.3334 11.0834H26.9167C27.7922 11.0834 28.5 11.7927 28.5 12.6667C28.5 13.5407 27.7923 14.25 26.9167 14.25ZM26.9167 9.5H25.3334C24.4578 9.5 23.7501 8.79069 23.7501 7.91669C23.7501 7.04269 24.4578 6.33338 25.3334 6.33338H26.9167C27.7922 6.33338 28.5 7.04269 28.5 7.91669C28.5 8.79069 27.7923 9.5 26.9167 9.5Z" fill="black"/>
</svg>
