<svg width="38" height="38" viewBox="0 0 38 38" fill="none" xmlns="http://www.w3.org/2000/svg">
<path d="M6.1845 32.0398V33.9809C6.1845 35.0663 5.3013 35.922 4.22898 35.922C3.15667 35.922 2.27347 35.0663 2.27347 33.9809V32.0398H0.296875V25.6948C0.296875 24.2964 1.24316 23.1485 2.52581 22.7936L4.81784 17.3878C5.1542 16.5947 5.93216 16.0312 6.85737 16.0312H18.5695C19.4947 16.0312 20.2727 16.5947 20.6092 17.388L22.8802 22.7938C24.1628 23.1485 25.1091 24.2965 25.1091 25.695V32.0399H23.1116V33.9811C23.1116 35.0664 22.2284 35.9222 21.1561 35.9222C20.0627 35.9222 19.2005 35.0664 19.2005 33.9811V32.0399H6.1845V32.0398ZM4.35516 28.5542C5.44855 28.5542 6.33175 27.6775 6.33175 26.5923C6.33175 25.5069 5.44855 24.6304 4.35516 24.6304C3.26177 24.6304 2.37856 25.5071 2.37856 26.5923C2.37856 27.6775 3.26177 28.5542 4.35516 28.5542ZM22.9011 26.5923C22.9011 25.5069 22.0179 24.6304 20.9245 24.6304C19.8311 24.6304 18.9479 25.5071 18.9479 26.5923C18.9479 27.6775 19.8311 28.5542 20.9245 28.5542C22.0179 28.5542 22.9011 27.6777 22.9011 26.5923ZM20.9245 22.6893L18.969 18.0141C18.8848 17.7844 18.6535 17.6175 18.3803 17.6175H7.02555C6.7732 17.6175 6.54194 17.7844 6.45777 18.0141L4.50226 22.6893H20.9245ZM30.9329 9.22108C30.1483 8.42338 28.9049 8.41314 28.1071 9.19778C27.4519 9.8423 27.3029 10.7736 27.7204 11.5401L25.1848 14.0343L24.9498 15.1062L26.0254 14.889L28.561 12.3948C29.2925 12.7965 30.2541 12.6914 30.9094 12.0467C31.7074 11.2621 31.7177 10.0188 30.9329 9.22108ZM32.8707 7.25889C33.1494 7.54211 33.6048 7.54582 33.888 7.2672C34.1712 6.98858 34.1749 6.53318 33.8963 6.24996C33.6177 5.96674 33.1623 5.96303 32.8791 6.2415C32.5958 6.52026 32.5921 6.97567 32.8707 7.25889ZM30.1214 15.1206C29.8428 14.8374 29.3874 14.8337 29.1041 15.1123C28.8209 15.3909 28.8172 15.8463 29.0957 16.1295C29.3743 16.4127 29.8297 16.4164 30.1129 16.1378C30.3961 15.8592 30.3999 15.4038 30.1214 15.1206ZM28.8427 5.6715C29.1214 5.95472 29.5768 5.95843 29.86 5.67981C30.1432 5.40119 30.1469 4.94579 29.8683 4.66257C29.5897 4.37935 29.1343 4.37564 28.8511 4.65411C28.5678 4.93273 28.5641 5.38828 28.8427 5.6715ZM26.4645 6.21701C26.1859 5.93379 25.7305 5.93008 25.4472 6.20869C25.164 6.48731 25.1603 6.94272 25.4388 7.22594C25.7174 7.50915 26.1728 7.51287 26.456 7.23425C26.7392 6.95563 26.7431 6.50023 26.4645 6.21701ZM24.8527 9.76437C24.5741 9.48115 24.1187 9.47744 23.8355 9.75605C23.5523 10.0347 23.5486 10.4901 23.827 10.7733C24.1057 11.0565 24.5611 11.0602 24.8443 10.7816C25.1275 10.5031 25.1314 10.0476 24.8527 9.76437ZM32.8742 13.702C32.5909 13.9806 32.5872 14.436 32.8658 14.7192C33.1445 15.0024 33.5999 15.0061 33.8831 14.7277C34.1663 14.4492 34.17 13.9936 33.8914 13.7104C33.6128 13.4272 33.1574 13.4235 32.8742 13.702ZM29.6256 2.20578C25.0698 2.20578 21.3931 5.88243 21.3931 10.4383C21.3931 13.8412 23.4702 16.773 26.4205 18.0331V20.5111H28.823V35.9219H30.3016V20.5111H32.6885V18.0252C35.6293 16.761 37.6979 13.8342 37.6979 10.4383C37.8581 5.88243 34.1414 2.20578 29.6256 2.20578ZM29.6256 17.3918C25.7891 17.3918 22.672 14.2746 22.672 10.4383C22.672 6.60176 25.7892 3.48472 29.6256 3.48472C33.462 3.48472 36.5792 6.6019 36.5792 10.4383C36.5792 14.2748 33.4621 17.3918 29.6256 17.3918ZM35.3902 10.162C35.1116 9.87881 34.6561 9.8751 34.3729 10.1537C34.0897 10.4323 34.086 10.8877 34.3646 11.171C34.6432 11.4542 35.0986 11.4579 35.3819 11.1794C35.6649 10.9008 35.6688 10.4452 35.3902 10.162Z" fill="black"/>
</svg>
