<svg width="32" height="32" viewBox="0 0 32 32" fill="none" xmlns="http://www.w3.org/2000/svg">
<path d="M16.8807 15.2193H2.48225C1.11356 15.2194 0 16.3329 0 17.7016V18.8722H19.3629V17.7016C19.3629 16.3329 18.2494 15.2193 16.8807 15.2193Z" fill="black"/>
<path d="M0 20.9592V25.5021C0 26.8707 1.11356 27.9843 2.48225 27.9843H16.8808C18.2495 27.9843 19.3631 26.8708 19.3631 25.5021V20.9592H0ZM5.91862 24.488H2.93269V22.4011H5.91862V24.488Z" fill="black"/>
<path d="M5.9187 4.01581V8.01481H6.9622C8.59189 8.01481 9.91783 6.68887 9.91783 5.05925V4.01581H5.9187Z" fill="black"/>
<path d="M28.001 4.01575V5.05925C28.001 6.68893 29.3269 8.01481 30.9566 8.01481H32.0001V4.01575H28.001Z" fill="black"/>
<path d="M30.9566 14.5807C29.3269 14.5807 28.001 15.9066 28.001 17.5363V18.5798H32.0001V14.5808H30.9566V14.5807Z" fill="black"/>
<path d="M30.9566 10.1017C28.1761 10.1017 25.914 7.83962 25.914 5.05925V4.01581H12.0048V5.05931C12.0048 7.83975 9.74264 10.1018 6.9622 10.1018H5.9187V13.1325H14.0982C13.7436 12.579 13.5436 11.9564 13.5436 11.2978C13.5436 9 15.9683 7.13718 18.9594 7.13718C21.9504 7.13718 24.3752 8.99993 24.3752 11.2978C24.3752 13.1214 22.8473 14.6699 20.7219 15.2319C21.1818 15.9446 21.45 16.7921 21.45 17.7016V18.5798H25.914V17.5364C25.914 14.7559 28.1761 12.4938 30.9566 12.4938H32.0001V10.1018L30.9566 10.1017Z" fill="black"/>
</svg>
