<svg width="35" height="35" viewBox="0 0 35 35" fill="none" xmlns="http://www.w3.org/2000/svg">
<g clip-path="url(#clip0_198_1660)">
<path d="M11.6305 15.2173H8.15234V18.6958H11.6305V15.2173Z" fill="#4880FF"/>
<path d="M26.8478 15.2173H23.3696V18.6958H26.8478V15.2173Z" fill="#4880FF"/>
<path d="M21.7756 15.2173H18.2974V18.6958H21.7756V15.2173Z" fill="#4880FF"/>
<path d="M11.6305 20.6521H8.15234V24.1306H11.6305V20.6521Z" fill="#4880FF"/>
<path d="M21.7756 20.6521H18.2974V24.1306H21.7756V20.6521Z" fill="#4880FF"/>
<path d="M16.703 20.6521H13.2249V24.1306H16.703V20.6521Z" fill="#4880FF"/>
<path d="M26.8478 26.0868H23.3696V29.5653H26.8478V26.0868Z" fill="#4880FF"/>
<path d="M21.7756 26.0868H18.2974V29.5653H21.7756V26.0868Z" fill="#4880FF"/>
<path d="M16.703 26.0868H13.2249V29.5653H16.703V26.0868Z" fill="#4880FF"/>
<path d="M30.0287 3.76294H27.2003V6.47476C27.2003 7.48661 26.3667 8.30952 25.3421 8.30952H21.649C20.6244 8.30952 19.7908 7.48661 19.7908 6.47476V3.76294H15.2043V6.44926C15.2043 7.4752 14.3615 8.30952 13.3255 8.30952H9.67351C8.63752 8.30952 7.79472 7.4752 7.79472 6.44926V3.76294H4.96628C3.127 3.76294 1.63062 5.24579 1.63062 7.06839V31.6946C1.63062 33.5171 3.127 35 4.96628 35H30.0287C31.8708 35 33.3695 33.5172 33.3695 31.6946V7.06839C33.3695 5.24586 31.8708 3.76294 30.0287 3.76294ZM30.9783 31.6304C30.9783 32.2155 30.5851 32.6085 30 32.6085H5.00012C4.41496 32.6085 4.02183 32.2155 4.02183 31.6304V12.1741H30.9783V31.6304Z" fill="#4880FF"/>
<path d="M9.6747 7.00731H13.3245C13.6336 7.00731 13.885 6.7576 13.885 6.4506V1.40089C13.885 0.628428 13.2513 0 12.4723 0H10.5269C9.74791 0 9.11401 0.628359 9.11401 1.40089V6.4506C9.11408 6.7576 9.36551 7.00731 9.6747 7.00731Z" fill="#4880FF"/>
<path d="M21.6489 7.00731H25.342C25.6393 7.00731 25.881 6.76717 25.881 6.47233V1.37936C25.881 0.618857 25.257 0 24.4898 0H22.5012C21.7341 0 21.1101 0.618857 21.1101 1.37936V6.47233C21.11 6.76717 21.3518 7.00731 21.6489 7.00731Z" fill="#4880FF"/>
</g>
<defs>
<clipPath id="clip0_198_1660">
<rect width="35" height="35" fill="white"/>
</clipPath>
</defs>
</svg>
