<svg width="35" height="35" viewBox="0 0 35 35" fill="none" xmlns="http://www.w3.org/2000/svg">
<g clip-path="url(#clip0_198_1656)">
<path d="M4.10158e-05 30.625V21.875C4.10158e-05 21.2684 0.210041 20.755 0.630041 20.335C1.05004 19.915 1.57504 19.6934 2.20504 19.67H10.955C11.5384 19.67 12.0517 19.8917 12.495 20.335C12.9384 20.7784 13.1484 21.2917 13.125 21.875V30.625C13.125 31.2317 12.915 31.745 12.495 32.165C12.075 32.585 11.5617 32.795 10.955 32.795H2.20504C1.59837 32.795 1.07337 32.585 0.630041 32.165C0.186708 31.745 -0.0232923 31.2317 4.10158e-05 30.625ZM4.10158e-05 8.71504C0.0233743 8.13171 0.245041 7.63004 0.665041 7.21004L5.04004 2.83504C5.36671 2.48504 5.75171 2.27504 6.19504 2.20504C6.63837 2.13504 7.04671 2.19338 7.42004 2.38004C7.79337 2.56671 8.10837 2.82338 8.36504 3.15004C8.62171 3.47671 8.75004 3.88504 8.75004 4.37504V6.58004H10.955V10.955H8.75004V13.125C8.75004 13.615 8.62171 14.035 8.36504 14.385C8.10837 14.735 7.78171 14.9917 7.38504 15.155C6.98837 15.3184 6.58004 15.365 6.16004 15.295C5.74004 15.225 5.36671 15.015 5.04004 14.665L0.665041 10.29C0.198374 9.84671 -0.0232923 9.32171 4.10158e-05 8.71504ZM4.37504 28.42H8.75004V24.045H4.37504V28.42ZM13.125 10.92V6.54504H15.33V10.92H13.125ZM15.33 28.42V24.045H17.5V28.42H15.33ZM17.5 10.92V6.54504H19.705V10.92H17.5ZM19.705 28.42V24.045H21.875V28.42H19.705ZM21.875 13.125V4.37504C21.875 3.76838 22.085 3.25504 22.505 2.83504C22.925 2.41504 23.45 2.19338 24.08 2.17004H32.83C33.4134 2.17004 33.9267 2.39171 34.37 2.83504C34.8134 3.27838 35.0234 3.79171 35 4.37504V13.125C35 13.7317 34.79 14.245 34.37 14.665C33.95 15.085 33.4367 15.295 32.83 15.295H24.08C23.4734 15.295 22.9484 15.085 22.505 14.665C22.0617 14.245 21.8517 13.7317 21.875 13.125ZM24.08 28.42V24.045H26.25V21.875C26.25 21.385 26.39 20.965 26.67 20.615C26.95 20.265 27.265 20.0084 27.615 19.845C27.965 19.6817 28.3734 19.6467 28.84 19.74C29.3067 19.8334 29.6917 20.02 29.995 20.3L34.37 24.675C34.8134 25.1417 35.0234 25.6667 35 26.25C34.9767 26.8334 34.7667 27.3467 34.37 27.79L29.995 32.165C29.645 32.4917 29.2484 32.69 28.805 32.76C28.3617 32.83 27.9534 32.7834 27.58 32.62C27.2067 32.4567 26.8917 32.2 26.635 31.85C26.3784 31.5 26.25 31.0917 26.25 30.625V28.42H24.08ZM26.25 10.92H30.625V6.54504H26.25V10.92Z" fill="#E74C3C"/>
</g>
<defs>
<clipPath id="clip0_198_1656">
<rect width="35" height="35" fill="white"/>
</clipPath>
</defs>
</svg>
