<svg width="38" height="38" viewBox="0 0 38 38" fill="none" xmlns="http://www.w3.org/2000/svg">
<g clip-path="url(#clip0_69_295)">
<path d="M20.3807 9.78651C18.9217 9.89574 17.5777 10.4246 16.4694 11.2524C16.7528 11.4644 17.0248 11.6987 17.2822 11.9562C20.2024 14.8764 20.2024 19.6281 17.2822 22.5483C17.0218 22.8087 16.7466 23.0455 16.4596 23.2594C15.2933 24.1291 13.9295 24.6154 12.5423 24.7178C10.4434 24.8728 8.29134 24.1497 6.68988 22.5483C3.76969 19.6281 3.76969 14.8764 6.68988 11.9562C8.29445 10.3517 10.4518 9.62906 12.5544 9.78765C13.6313 8.57966 14.9642 7.60505 16.4674 6.94959C12.359 5.16842 7.39546 5.95454 4.0419 9.30803C-0.33851 13.6884 -0.33851 20.8159 4.0419 25.1963C5.75516 26.9096 7.88863 27.9526 10.1136 28.3257V29.9755H8.78997C7.75586 29.9755 6.9175 30.8139 6.9175 31.848C6.9175 32.8821 7.75586 33.7204 8.78997 33.7204H10.1136V35.1653C10.1136 36.1994 10.952 37.0378 11.9861 37.0378C13.0202 37.0378 13.8585 36.1994 13.8585 35.1653V33.7204H15.1822C16.2163 33.7204 17.0547 32.8821 17.0547 31.848C17.0547 30.8139 16.2163 29.9755 15.1822 29.9755H13.8585V28.3257C14.7438 28.1773 15.6144 27.9224 16.45 27.5619C17.7145 27.0162 18.8986 26.2279 19.9302 25.1964C20.0817 25.0448 20.2275 24.8897 20.3685 24.7318C24.1597 20.4884 24.1637 14.0348 20.3807 9.78651Z" fill="black"/>
<path d="M35.3695 0.962112H29.4365C28.4018 0.962112 27.5629 1.80092 27.5629 2.83571C27.5629 3.87042 28.4017 4.70931 29.4365 4.70931H30.8463L27.4556 8.10004C25.6173 6.78978 23.3699 6.01827 20.9455 6.01827C19.3546 6.01827 17.8404 6.35119 16.4674 6.94973C14.9643 7.60513 13.6313 8.57981 12.5545 9.7878C10.7826 11.7754 9.70398 14.3938 9.70398 17.2597C9.70398 20.1191 10.7777 22.732 12.5423 24.718C13.9296 24.6156 15.2933 24.1293 16.4596 23.2596C14.6343 21.8914 13.4512 19.7112 13.4512 17.2597C13.4512 14.8038 14.6386 12.6202 16.4694 11.2525C17.5776 10.4246 18.9216 9.89582 20.3807 9.78659C20.5671 9.77266 20.7555 9.76539 20.9454 9.76539C25.0778 9.76539 28.4397 13.1273 28.4397 17.2597C28.4397 21.3921 25.0778 24.754 20.9454 24.754C20.7513 24.754 20.5589 24.7466 20.3684 24.732C20.2274 24.8899 20.0816 25.045 19.9302 25.1965C18.8985 26.2282 17.7145 27.0163 16.4499 27.562C17.8274 28.1654 19.3478 28.5011 20.9454 28.5011C27.1439 28.5011 32.1868 23.4582 32.1868 17.2597C32.1868 14.8353 31.4153 12.5879 30.1051 10.7496L33.4958 7.35888V8.76868C33.4958 9.80339 34.3346 10.6423 35.3694 10.6423C36.4041 10.6423 37.243 9.80347 37.243 8.76868V2.83563C37.2431 1.80092 36.4042 0.962112 35.3695 0.962112Z" fill="black"/>
<path d="M35.3693 0.205139H29.4364C27.9859 0.205139 26.8059 1.38519 26.8059 2.83571C26.8059 4.15407 27.7807 5.24896 29.0474 5.4376L27.361 7.12392C25.4413 5.90322 23.2366 5.26122 20.9453 5.26122C19.3958 5.26122 17.8901 5.55349 16.4646 6.13008C14.364 5.28636 12.08 5.0529 9.83677 5.45857C7.42822 5.89413 5.23926 7.04027 3.50654 8.773C-1.16901 13.4485 -1.16901 21.0563 3.50654 25.7318C5.12572 27.3509 7.13731 28.4553 9.35654 28.9493V29.2187H8.78987C7.34003 29.2187 6.16043 30.3983 6.16043 31.8481C6.16043 33.298 7.34003 34.4776 8.78987 34.4776H9.35654V35.1655C9.35654 36.6153 10.5361 37.7949 11.986 37.7949C13.4358 37.7949 14.6154 36.6153 14.6154 35.1655V34.4776H15.1821C16.6319 34.4776 17.8115 33.298 17.8115 31.8481C17.8115 30.3983 16.6319 29.2187 15.1821 29.2187H14.6154V28.949C15.2402 28.8094 15.8532 28.6195 16.4472 28.3822C17.8778 28.9635 19.3894 29.2581 20.9453 29.2581C27.5613 29.2581 32.9438 23.8757 32.9438 17.2597C32.9438 14.9684 32.3018 12.7638 31.0811 10.8441L32.7674 9.15777C32.956 10.4244 34.051 11.3993 35.3693 11.3993C36.8198 11.3993 37.9998 10.2192 37.9998 8.76876V2.83571C37.9999 1.38519 36.8199 0.205139 35.3693 0.205139ZM13.7332 27.5793C13.3686 27.6405 13.1015 27.9561 13.1015 28.3258V29.9756C13.1015 30.3937 13.4404 30.7326 13.8584 30.7326H15.1821C15.7971 30.7326 16.2976 31.2329 16.2976 31.848C16.2976 32.4632 15.7972 32.9635 15.1821 32.9635H13.8584C13.4404 32.9635 13.1015 33.3024 13.1015 33.7205V35.1654C13.1015 35.7805 12.6011 36.2809 11.986 36.2809C11.3709 36.2809 10.8705 35.7805 10.8705 35.1654V33.7205C10.8705 33.3024 10.5316 32.9635 10.1135 32.9635H8.78995C8.1749 32.9635 7.67446 32.4632 7.67446 31.848C7.67446 31.2329 8.17483 30.7326 8.78995 30.7326H10.1136C10.5317 30.7326 10.8706 30.3937 10.8706 29.9756V28.3258C10.8706 27.956 10.6034 27.6404 10.2388 27.5793C8.0824 27.2177 6.12463 26.2086 4.57721 24.6612C0.491952 20.576 0.491952 13.9287 4.57721 9.84344C7.23685 7.18387 11.0189 6.18315 14.5754 7.09796L14.5776 7.0978C13.7233 7.63579 12.9333 8.28157 12.2387 9.01372L12.2386 9.01311C9.96599 8.94385 7.76591 9.80983 6.15468 11.4209C2.93934 14.6363 2.93934 19.8682 6.15468 23.0836C7.85016 24.7791 10.1988 25.6501 12.5981 25.4728C14.1662 25.357 15.6579 24.8015 16.9122 23.8663C17.2321 23.6277 17.5368 23.3644 17.8175 23.0836C21.0329 19.8682 21.0329 14.6363 17.8175 11.4208C17.7899 11.3933 17.7621 11.3658 17.734 11.3385C18.4572 10.9447 19.2464 10.6882 20.0652 10.5807C23.3538 14.5533 23.2655 20.3532 19.8041 24.2276C19.6678 24.3801 19.5302 24.526 19.3951 24.6612C18.4548 25.6015 17.3631 26.3435 16.1502 26.8669C15.3776 27.2002 14.5645 27.4399 13.7332 27.5793ZM10.9702 10.6003C9.65684 12.5628 8.94702 14.8751 8.94702 17.2596C8.94702 19.637 9.65305 21.9434 10.9593 23.9025C9.55593 23.687 8.2453 23.0333 7.2252 22.0132C4.60007 19.388 4.60007 15.1166 7.2252 12.4915C8.24825 11.4684 9.56252 10.8138 10.9702 10.6003ZM16.4677 12.2293C16.5633 12.3145 16.657 12.4015 16.7468 12.4913C19.372 15.1165 19.372 19.3879 16.7468 22.013C16.6543 22.1055 16.5579 22.195 16.4595 22.2825C15.0218 21.0029 14.208 19.2027 14.208 17.2596C14.2081 15.3121 15.0248 13.5093 16.4677 12.2293ZM21.9625 10.5991C25.1966 11.0909 27.6827 13.8904 27.6827 17.2597C27.6827 20.6327 25.1911 23.4345 21.9518 23.9218C23.2613 21.9649 23.97 19.6526 23.9718 17.2617C23.9736 14.871 23.2687 12.5577 21.9625 10.5991ZM36.486 8.76868C36.486 9.38433 35.9851 9.88522 35.3694 9.88522C34.7537 9.88522 34.2528 9.38433 34.2528 8.76868V7.35889C34.2528 7.05276 34.0683 6.77669 33.7855 6.65951C33.5026 6.54226 33.1771 6.60713 32.9606 6.82355L29.5699 10.2142C29.3084 10.4757 29.2742 10.8878 29.4888 11.1889C30.7587 12.9706 31.43 15.0698 31.43 17.2596C31.43 23.0407 26.7266 27.7441 20.9455 27.7441C20.0603 27.7441 19.1916 27.6351 18.3483 27.4189L18.3467 27.419C19.1105 26.9413 19.8196 26.3777 20.4656 25.7317C20.5382 25.6591 20.6112 25.5838 20.6843 25.5066V25.5068C20.7715 25.5095 20.8588 25.5108 20.9455 25.5108C25.4952 25.5108 29.1968 21.8094 29.1968 17.2596C29.1968 12.7099 25.4953 9.00834 20.9455 9.00834C20.7401 9.00834 20.5311 9.01621 20.3242 9.03166C18.7633 9.14853 17.2737 9.70673 16.0164 10.646C13.9361 12.2 12.6942 14.6724 12.6942 17.2596C12.6942 19.4851 13.6139 21.6269 15.1956 23.1711C14.4728 23.5627 13.6818 23.8176 12.8591 23.9241C11.3099 22.0476 10.4611 19.696 10.4611 17.2596C10.4611 14.6892 11.4052 12.2145 13.1196 10.2913C14.1272 9.16102 15.3894 8.24546 16.7701 7.64351C18.0916 7.0673 19.4965 6.7751 20.9456 6.7751C23.1354 6.7751 25.2346 7.44639 27.0163 8.7163C27.3174 8.93083 27.7295 8.89661 27.9909 8.63515L31.3816 5.24449C31.5981 5.028 31.6628 4.70242 31.5456 4.41954C31.4284 4.13666 31.1524 3.95226 30.8462 3.95226H29.4364C28.8208 3.95226 28.3199 3.45136 28.3199 2.83571C28.3199 2.21999 28.8208 1.7191 29.4364 1.7191H35.3694C35.9851 1.7191 36.486 2.21999 36.486 2.83571V8.76868Z" fill="black"/>
<path d="M35.2749 2.36995C35.0758 2.36995 34.8805 2.45095 34.7397 2.59174C34.5989 2.73254 34.5179 2.92784 34.5179 3.12693C34.5179 3.32677 34.5989 3.52131 34.7397 3.66211C34.8805 3.80291 35.0758 3.88391 35.2749 3.88391C35.474 3.88391 35.6693 3.80291 35.8101 3.66211C35.9509 3.52131 36.0319 3.32677 36.0319 3.12693C36.0319 2.92784 35.9509 2.73254 35.8101 2.59174C35.6693 2.45095 35.4739 2.36995 35.2749 2.36995Z" fill="black"/>
<path d="M35.2749 4.41394C34.8568 4.41394 34.5179 4.75284 34.5179 5.17092V5.9799C34.5179 6.39798 34.8568 6.73688 35.2749 6.73688C35.693 6.73688 36.0319 6.39798 36.0319 5.9799V5.17092C36.0319 4.75284 35.6929 4.41394 35.2749 4.41394Z" fill="black"/>
</g>
<defs>
<clipPath id="clip0_69_295">
<rect width="38" height="38" fill="white"/>
</clipPath>
</defs>
</svg>
