<svg width="38" height="38" viewBox="0 0 38 38" fill="none" xmlns="http://www.w3.org/2000/svg">
<path fill-rule="evenodd" clip-rule="evenodd" d="M34.8333 19C34.8333 27.7444 27.7444 34.8333 19 34.8333C10.2554 34.8333 3.16663 27.7444 3.16663 19C3.16663 10.2555 10.2554 3.16667 19 3.16667C27.7444 3.16667 34.8333 10.2555 34.8333 19ZM23.75 14.25C23.75 16.8734 21.6234 19 19 19C16.3765 19 14.25 16.8734 14.25 14.25C14.25 11.6267 16.3765 9.5 19 9.5C21.6234 9.5 23.75 11.6267 23.75 14.25ZM19 32.4583C21.8246 32.4583 24.4461 31.5881 26.6109 30.1011C27.5671 29.4443 27.9756 28.1932 27.4198 27.1751C26.2675 25.0646 23.8928 23.75 18.9998 23.75C14.107 23.75 11.7324 25.0645 10.58 27.1751C10.0241 28.1932 10.4327 29.4441 11.3888 30.1009C13.5536 31.588 16.1751 32.4583 19 32.4583Z" fill="black"/>
</svg>
