<svg width="31" height="31" viewBox="0 0 31 31" fill="none" xmlns="http://www.w3.org/2000/svg">
<path d="M21.6105 0.916664H9.38966C4.08133 0.916664 0.916748 4.08125 0.916748 9.38958V21.5958C0.916748 26.9187 4.08133 30.0833 9.38966 30.0833H21.5959C26.9042 30.0833 30.0688 26.9187 30.0688 21.6104V9.38958C30.0834 4.08125 26.9188 0.916664 21.6105 0.916664ZM9.12716 24.4687C9.12716 25.0667 8.63133 25.5625 8.03341 25.5625C7.4355 25.5625 6.93966 25.0667 6.93966 24.4687V21.45C6.93966 20.8521 7.4355 20.3562 8.03341 20.3562C8.63133 20.3562 9.12716 20.8521 9.12716 21.45V24.4687ZM16.5938 24.4687C16.5938 25.0667 16.098 25.5625 15.5001 25.5625C14.9022 25.5625 14.4063 25.0667 14.4063 24.4687V18.4167C14.4063 17.8187 14.9022 17.3229 15.5001 17.3229C16.098 17.3229 16.5938 17.8187 16.5938 18.4167V24.4687ZM24.0605 24.4687C24.0605 25.0667 23.5647 25.5625 22.9667 25.5625C22.3688 25.5625 21.873 25.0667 21.873 24.4687V15.3979C21.873 14.8 22.3688 14.3042 22.9667 14.3042C23.5647 14.3042 24.0605 14.8 24.0605 15.3979V24.4687ZM24.0605 10.7896C24.0605 11.3875 23.5647 11.8833 22.9667 11.8833C22.3688 11.8833 21.873 11.3875 21.873 10.7896V9.375C18.1542 13.1958 13.5022 15.8937 8.29591 17.1917C8.20841 17.2208 8.12091 17.2208 8.03341 17.2208C7.53758 17.2208 7.10008 16.8854 6.96883 16.3896C6.823 15.8062 7.173 15.2083 7.77091 15.0625C12.6855 13.8375 17.0605 11.2562 20.5313 7.61041H18.7084C18.1105 7.61041 17.6147 7.11458 17.6147 6.51666C17.6147 5.91875 18.1105 5.42291 18.7084 5.42291H22.9813C23.0397 5.42291 23.0834 5.45208 23.1417 5.45208C23.2147 5.46666 23.2876 5.46666 23.3605 5.49583C23.4334 5.525 23.4917 5.56875 23.5647 5.6125C23.6084 5.64166 23.6522 5.65625 23.6959 5.68541C23.7105 5.7 23.7105 5.71458 23.7251 5.71458C23.7834 5.77291 23.8272 5.83125 23.8709 5.88958C23.9147 5.94791 23.9584 5.99166 23.973 6.05C24.0022 6.10833 24.0022 6.16666 24.0167 6.23958C24.0313 6.3125 24.0605 6.38541 24.0605 6.47291C24.0605 6.4875 24.0751 6.50208 24.0751 6.51666V10.7896H24.0605Z" fill="#292D32"/>
</svg>
