<svg width="35" height="34" viewBox="0 0 35 34" fill="none" xmlns="http://www.w3.org/2000/svg">
<path d="M11.9738 10.5599L16.3038 1.8399C16.4299 1.58754 16.6237 1.37529 16.8637 1.22694C17.1036 1.07858 17.3801 1 17.6622 1C17.9443 1 18.2208 1.07858 18.4607 1.22694C18.7006 1.37529 18.8945 1.58754 19.0205 1.8399L23.3505 10.5599L33.0305 11.9666C33.3097 12.0053 33.5724 12.1217 33.7886 12.3026C34.0048 12.4835 34.1658 12.7215 34.2532 12.9894C34.3407 13.2574 34.351 13.5446 34.283 13.8182C34.215 14.0917 34.0715 14.3407 33.8688 14.5366L26.8655 21.3199L28.5188 30.9032C28.7305 32.1332 27.4305 33.0699 26.3188 32.4899L17.6622 27.9632L9.00385 32.4899C7.89385 33.0716 6.59385 32.1332 6.80551 30.9016L8.45885 21.3182L1.45551 14.5349C1.25382 14.3389 1.11118 14.0902 1.04379 13.8171C0.976397 13.544 0.986967 13.2575 1.0743 12.9901C1.16162 12.7228 1.32221 12.4853 1.53779 12.3046C1.75338 12.124 2.01532 12.0074 2.29385 11.9682L11.9738 10.5599Z" fill="url(#paint0_linear_256_750)" fill-opacity="0.5" stroke="#F0A633" stroke-opacity="0.5" stroke-linecap="round" stroke-linejoin="round"/>
<defs>
<linearGradient id="paint0_linear_256_750" x1="17.6637" y1="1" x2="17.6637" y2="32.6666" gradientUnits="userSpaceOnUse">
<stop stop-color="#FFFED0"/>
<stop offset="1" stop-color="#F7AB15"/>
</linearGradient>
</defs>
</svg>
